<svg width="24" height="24" fill="none" xmlns="http://www.w3.org/2000/svg"><path fill-rule="evenodd" clip-rule="evenodd" d="M1 12C1 5.923 5.924 1 12 1c6.074 0 10.998 4.924 10.998 11 0 6.074-4.924 10.998-10.999 10.998S1 18.074 1 12zM12 0C5.371 0 0 5.372 0 12c0 6.626 5.372 11.998 12 11.998 6.626 0 11.998-5.372 11.998-11.999C23.998 5.372 18.626 0 12 0zm.353 17.58l3.182-3.182a.5.5 0 00-.707-.707l-2.329 2.328V7.818a.5.5 0 10-1 0v8.2L9.171 13.69a.5.5 0 00-.708.708l3.183 3.182a.5.5 0 00.707 0z" fill="#fff"/></svg>