<svg width="24" height="24" viewBox="0 0 24 24" fill="none" xmlns="http://www.w3.org/2000/svg">
<path fill-rule="evenodd" clip-rule="evenodd" d="M1 11.9991C1 5.92446 5.92446 1 11.9991 1C18.0737 1 22.9982 5.92446 22.9982 11.9991C22.9982 18.0737 18.0737 22.9982 11.9991 22.9982C5.92446 22.9982 1 18.0737 1 11.9991ZM11.9991 0C5.37218 0 0 5.37218 0 11.9991C0 18.626 5.37218 23.9982 11.9991 23.9982C18.626 23.9982 23.9982 18.626 23.9982 11.9991C23.9982 5.37218 18.626 0 11.9991 0ZM12.3526 17.5796L15.5346 14.3976C15.7298 14.2024 15.7298 13.8858 15.5346 13.6905C15.3393 13.4953 15.0227 13.4953 14.8275 13.6905L12.499 16.0189V7.8177C12.499 7.54156 12.2752 7.3177 11.999 7.3177C11.7229 7.3177 11.499 7.54156 11.499 7.8177V16.0189L9.1706 13.6905C8.97533 13.4953 8.65875 13.4953 8.46349 13.6905C8.26823 13.8858 8.26823 14.2024 8.46349 14.3976L11.6455 17.5796C11.8407 17.7749 12.1573 17.7749 12.3526 17.5796Z" fill="white"/>
</svg>
